# xmcd
#
# Track frame offsets:
#	150
#	11968
#	23391
#	34539
#	44259
#	58975
#	69159
#	82866
#	94310
#	106630
#	118043
#	127957
#
# Disc length: 1825 seconds
#
# Revision: 1
# Processed by: cddbd v1.5.2PL0 Copyright (c) Steve Scherf et al.
# Submitted via: EZCDAudioConverter 8.3.2.1
#
DISCID=8b071f0c
DTITLE=Marty Robbins - The Many Sides Of Marty Robbins: 40 All-Time Greatest H
DTITLE=its! [Disc 3]
DYEAR=1976
DGENRE=Traditional Country
TTITLE0=That's All Right
TTITLE1=Maybellene
TTITLE2=Singing The Blues
TTITLE3=Long Tall Sally
TTITLE4=Tennessee Toddy
TTITLE5=Mean Mama Blues
TTITLE6=Respectfully Miss Brooks
TTITLE7=Long Gone Lonesome Blues
TTITLE8=Pretty Mama
TTITLE9=A White Sport Coat
TTITLE10=Knee Deep In The Blues
TTITLE11=Ruby Ann
EXTD=
EXTT0=
EXTT1=
EXTT2=
EXTT3=
EXTT4=
EXTT5=
EXTT6=
EXTT7=
EXTT8=
EXTT9=
EXTT10=
EXTT11=
PLAYORDER=
